<svg xmlns="http://www.w3.org/2000/svg" height="100" width="100" viewBox="0 0 100 100">
	<path fill="#FBBC05" d="M21.51,50c0-3.25,0.54-6.36,1.5-9.28L6.14,27.85C2.85,34.52,1,42.03,1,50s1.85,15.48,5.14,22.15l16.87-12.87C22.05,56.36,21.51,53.25,21.51,50z"/>
	<path fill="#EA4335" d="M6.14,27.85l16.87,12.87c3.89-11.79,14.97-20.26,28.12-20.26c7.07,0,13.45,2.5,18.46,6.59L84.19,12.5C75.3,4.77,63.9,0,51.14,0C31.33,0,14.3,11.32,6.14,27.85z"/>
	<path fill="#34A853" d="M51.14,40.91v19.32h26.89C75.53,72.5,65.04,79.55,51.14,79.55c-13.17,0-24.26-8.5-28.14-20.3L6.13,72.14C14.29,88.68,31.32,100,51.14,100C76.21,100,99,81.82,99,50c0-2.95-0.46-6.14-1.14-9.09H51.14z"/>
	<path fill="#4285F4" d="M51.14,40.91v19.32h26.89c-1.35,6.59-5,11.65-10.24,14.95l16.02,12.37C93.01,79.01,99,66.3,99,50c0-2.95-0.46-6.14-1.14-9.09H51.14z"/>
</svg>
